# xmcd
#
# Track frame offsets:
#	150
#	15062
#	28015
#	42997
#	57433
#	73813
#	88459
#	103604
#	117802
#	131904
#
# Disc length: 1961 seconds
#
# Revision: 0
# Processed by: cddbd v1.5.2PL0 Copyright (c) Steve Scherf et al.
# Submitted via: EasyCDDAExtractor 16.0.6.1
#
DISCID=8807a70a
DTITLE=Συλλογικός δίσκος - Ιστορία ρεμπέτικου και λαϊκού 06-1
DYEAR=2007
DGENRE=Ποικίλη
TTITLE0=Μπέλλου Σωτηρία-Τσιτσάνης Βασίλης - Κάνε λιγάκι υπομονή [Βασ. Τσιτσάνη
TTITLE0=ς]
TTITLE1=Χατζηχρήστος Απόστολος-Βαμβακάρης Μ. - Καϊξής [Α. Χατζηχρήστος-Γ. Φωτί
TTITLE1=δας]
TTITLE2=Μπέλλου Σωτηρία-Περπινιάδης Στελλάκης - Ο ναύτης [Γ. Μητσάκης-Κ. Μάνεσ
TTITLE2=ης]
TTITLE3=Χατζηχρήστος Απ.-Βαμβακάρης Μ.-Καλδάρας Απ. - Πάμε στο Φάληρο [Α. Χατζ
TTITLE3=ηχρήστος]
TTITLE4=Χάρμα Λίτσα-Βαμβακάρης Μάρκος - Πάλι κι απόψε θα τα πιω [Σπ. Περιστέρη
TTITLE4=ς]
TTITLE5=Καλφοπούλου Σούλα-Βαμβακάρης Μ.-Καλδάρας Απ. - Θέλω να σε πιάσω φίλο [
TTITLE5=Απ. Καλδάρας]
TTITLE6=Ντού Χάρμα-Παγιουμτζής Στράτος - Είμαι μαγκάκι [Απ. Καλδάρας]
TTITLE7=Νίνου Μαρίκα-Περπινιάδης Στελλάκης - Νύχτες ξενυχτώ χωρίς ελπίδα[Γ.Παπ
TTITLE7=αϊωάννου-Ζ.Κασιμάτης]
TTITLE8=Μητσάκης Γιώργος-ΓεωργακοπούλουΙ.-ΠερπινιάδηςΣ. - Κάτσε να πιούμε ένα 
TTITLE8=κρασί[Γ.Μητσάκης]
TTITLE9=Ντούο Χάρμα - Ο εργάτης [Απ. Καλδάρας]
EXTD=
EXTT0=
EXTT1=
EXTT2=
EXTT3=
EXTT4=
EXTT5=
EXTT6=
EXTT7=
EXTT8=
EXTT9=
PLAYORDER=
